<?xml version="1.0" standalone="no"?>
<!DOCTYPE svg PUBLIC "-//W3C//DTD SVG 20010904//EN"
 "http://www.w3.org/TR/2001/REC-SVG-20010904/DTD/svg10.dtd">
<svg version="1.0" xmlns="http://www.w3.org/2000/svg"
 width="1416.000000pt" height="712.000000pt" viewBox="0 0 1416.000000 712.000000"
 preserveAspectRatio="xMidYMid meet">

<g transform="translate(0.000000,712.000000) scale(0.100000,-0.100000)"
fill="#000000" stroke="none">
<path d="M8880 5460 c-25 -4 -70 -12 -101 -18 -63 -12 -191 -73 -278 -132 -73
-50 -128 -108 -185 -195 -25 -38 -59 -88 -75 -110 -16 -22 -36 -55 -45 -73
-24 -46 -52 -72 -78 -72 -13 0 -61 23 -108 50 -47 27 -119 68 -160 90 -41 22
-118 67 -170 100 -52 33 -111 68 -130 78 -19 9 -52 28 -73 41 -44 27 -43 28
-102 -58 -92 -134 -206 -302 -268 -396 -75 -114 -102 -152 -137 -199 -14 -19
-37 -53 -52 -77 -42 -66 -171 -256 -221 -324 -24 -33 -57 -82 -73 -110 -15
-27 -43 -68 -61 -89 -55 -66 -54 -67 129 -64 l162 3 31 41 c16 23 38 54 48 70
9 16 54 81 98 144 85 121 131 188 189 275 19 28 58 84 85 124 28 40 59 87 70
105 11 17 46 67 78 110 75 100 65 101 307 -45 36 -21 90 -52 121 -68 64 -34
83 -54 77 -79 -8 -27 -113 -193 -153 -239 -20 -24 -45 -43 -55 -43 -39 0 -108
-40 -148 -85 l-42 -48 0 -93 0 -92 39 -50 c99 -124 263 -124 362 0 l39 50 0
97 c0 94 1 99 33 145 36 53 65 97 116 174 38 58 60 69 94 50 14 -7 46 -25 73
-39 27 -15 85 -48 129 -75 124 -74 267 -154 274 -154 3 0 29 -15 56 -33 28
-19 82 -51 120 -72 39 -20 77 -43 86 -51 9 -8 42 -28 75 -45 102 -52 137 -74
148 -92 9 -14 -4 -47 -69 -175 l-80 -157 -54 -19 c-238 -85 -176 -445 77 -446
63 0 150 38 187 82 43 51 58 157 34 238 -12 38 -10 44 28 115 6 11 32 64 58
118 38 79 50 97 68 97 21 0 81 -32 292 -155 155 -90 151 -84 106 -179 -16 -34
-48 -101 -71 -151 -24 -49 -83 -173 -133 -275 -105 -216 -214 -444 -264 -550
-19 -41 -70 -147 -113 -235 -43 -88 -104 -214 -135 -280 -31 -66 -88 -185
-127 -265 -38 -80 -78 -163 -88 -185 -10 -22 -80 -166 -155 -320 -75 -154
-148 -305 -162 -335 -59 -127 -101 -205 -116 -214 -18 -12 -99 28 -252 121
-38 23 -85 49 -102 57 -18 8 -52 28 -75 44 -39 26 -155 93 -226 131 -15 8 -63
37 -107 65 -44 29 -109 66 -145 85 -36 18 -102 54 -147 79 -44 26 -132 76
-195 111 -62 35 -120 70 -128 76 -8 7 -35 24 -60 38 -157 87 -219 123 -245
141 -16 12 -52 31 -80 44 -27 13 -63 34 -80 46 -16 13 -64 42 -106 64 l-76 42
-274 0 c-320 0 -312 9 -94 -111 72 -40 143 -82 160 -93 16 -12 57 -35 90 -52
55 -28 170 -95 255 -149 19 -12 71 -42 115 -65 44 -24 127 -71 185 -105 173
-102 330 -194 485 -282 39 -23 104 -60 145 -84 41 -24 84 -47 94 -52 25 -10
179 -101 231 -137 22 -15 84 -50 139 -79 54 -28 110 -60 125 -70 14 -10 89
-53 166 -97 77 -43 178 -101 225 -130 46 -28 89 -50 95 -48 5 2 31 48 57 102
26 53 83 171 127 262 44 91 92 192 108 225 15 33 96 201 180 374 84 172 153
317 153 321 0 10 50 106 78 150 12 19 27 51 33 70 7 19 68 149 136 288 67 139
123 258 123 263 0 5 15 38 34 72 55 102 63 118 105 207 42 91 133 282 224 470
30 63 76 160 101 215 26 55 56 116 67 135 19 33 31 59 96 202 32 69 30 72 -76
129 -42 23 -83 48 -91 55 -8 7 -46 29 -85 49 -103 53 -157 84 -174 99 -9 7
-52 33 -96 56 -95 51 -115 67 -115 91 0 10 24 67 54 126 30 60 64 132 75 161
12 28 31 76 43 105 21 48 23 67 23 242 0 202 -1 207 -59 338 -76 169 -209 309
-371 387 -56 28 -133 56 -175 65 -90 19 -238 27 -300 15z m305 -271 c65 -30
194 -119 221 -152 16 -20 47 -68 68 -108 41 -76 50 -120 62 -298 7 -90 9 -81
-67 -256 -22 -49 -39 -94 -39 -99 0 -5 -11 -24 -25 -42 -14 -18 -29 -44 -35
-58 -5 -14 -17 -26 -25 -26 -21 0 -102 41 -205 104 -117 72 -335 198 -435 250
-22 12 -67 39 -100 61 -54 36 -98 61 -192 111 -62 33 -57 48 78 250 38 56 93
124 123 150 56 51 161 110 218 125 54 13 318 5 353 -12z"/>
<path d="M4839 3540 c-122 -100 -42 -260 130 -260 108 0 200 59 208 134 6 52
-13 85 -71 127 -36 27 -45 29 -135 29 -92 0 -98 -1 -132 -30z"/>
<path d="M5425 3556 c-51 -22 -85 -71 -85 -122 0 -37 6 -51 38 -85 20 -23 51
-48 69 -56 26 -10 184 -13 833 -13 l801 0 49 46 c60 56 71 96 44 155 -9 22
-31 51 -47 65 l-29 24 -821 0 c-661 -1 -828 -3 -852 -14z"/>
<path d="M4414 2941 c-52 -32 -74 -68 -74 -123 0 -99 54 -138 193 -138 89 0
138 19 181 70 27 33 32 58 17 88 -5 9 -15 32 -22 51 -20 55 -59 71 -169 71
-75 0 -101 -4 -126 -19z"/>
<path d="M4970 2938 c-38 -26 -73 -88 -73 -128 0 -35 49 -99 90 -116 26 -11
184 -14 839 -14 898 0 850 -4 900 69 13 19 24 49 24 66 0 42 -31 96 -70 123
l-33 22 -822 0 -822 0 -33 -22z"/>
<path d="M5000 2349 c-14 -6 -37 -22 -52 -36 -26 -24 -28 -33 -28 -99 l0 -72
42 -36 c41 -36 43 -36 132 -36 81 0 95 3 129 25 41 28 77 89 77 130 0 37 -47
95 -95 116 -44 21 -162 25 -205 8z"/>
<path d="M5555 2341 c-57 -26 -95 -78 -95 -129 0 -36 50 -106 89 -127 26 -13
131 -15 838 -15 l808 0 40 23 c97 54 98 192 2 244 -30 17 -88 18 -837 20 -765
3 -807 2 -845 -16z"/>
</g>
</svg>
